<?xml version="1.0" encoding="UTF-8" standalone="yes"?>
<svg version="1.1" width="64" height="64" color-interpolation="linearRGB"
     xmlns:svg="http://www.w3.org/2000/svg" xmlns="http://www.w3.org/2000/svg">
 <g>
  <path style="fill:#000000; fill-opacity:0.4196"
        d="M32 5.9C42 5.9 50.13 14 50.13 24C50.13 34 42 42.14 32 42.14C22 42.14 13.87 34 13.87 24C13.87 14 22 5.9 32 5.9z"
        transform="matrix(1.3034,0,0,0.6137,-2.2161,36.2795)"
  />
  <path style="fill:none; stroke:#000000; stroke-width:3; stroke-linecap:round; stroke-linejoin:round"
        d="M41 9C41 9 39.81 5.57 37 7C35 8 35.68 10.11 35.4 10.22C32.63 10.8 29.5 11.3 26.75 11.3C26.73 11.3 26.7 11.3 26.66 11.3C23.71 11.3 21.31 12.18 19.52 13.79C19.02 14.24 18.57 14.75 18.17 15.33C17.98 15.61 17.78 15.93 17.61 16.24C17.51 16.39 17.46 16.57 17.37 16.74C17.28 16.9 17.21 17.06 17.12 17.23C16.99 17.57 16.86 17.92 16.74 18.28C16.61 18.65 16.5 19.03 16.42 19.44C16.36 19.74 16.21 20.54 16.19 20.64C16.19 20.64 16.19 20.64 16.19 20.65C16.12 21.07 16.04 21.95 16.04 21.95C16.01 22.38 16 22.84 16 23.31C15.99 24.23 16.01 25.84 16.01 25.85C16.03 26.6 16.13 27.89 16.13 27.89C16.19 28.5 16.48 30.5 16.56 30.85C16.64 31.2 16.74 31.5 16.84 31.74C16.94 32 17.02 32.19 17.12 32.34V32.35C17.23 32.5 17.33 32.63 17.42 32.72C17.51 32.8 17.61 32.86 17.7 32.9C18.26 33.1 18.09 32.84 18 32.73C17.98 32.7 17.95 32.65 17.95 32.65C18.02 32.7 18.11 32.74 18.2 32.79C18.27 32.85 18.37 32.91 18.45 32.97C18.45 32.85 18.45 32.74 18.45 32.64C18.52 32.65 18.61 32.66 18.69 32.68C18.75 32.68 18.83 32.69 18.89 32.7C19.09 32.56 19.28 32.45 19.49 32.31C19.5 32.27 19.51 32.23 19.53 32.19C19.74 32.19 19.92 32.19 20.11 32.19C20.11 32.19 20.53 32.04 20.66 31.67C20.67 31.63 20.7 31.61 20.71 31.57C20.74 31.4 20.77 31.22 20.75 30.98C20.71 30.24 21 29.87 20.96 29.38C20.94 29.23 20.88 29.03 20.75 28.83C20.5 28.37 20.03 26.24 19.97 24.11C19.96 24.08 19.96 24.04 19.96 24C19.91 22.94 19.92 21.85 20 20.99C20.24 18.16 23.47 17.59 25.66 16.88C25.99 16.79 26.29 16.71 26.6 16.65C27.5 16.5 28.29 16.29 29.24 16.16C29.87 16.09 30.57 16.02 31.39 16.03C31.41 16.03 31.44 16.04 31.46 16.04C32.69 16.07 34.21 16.22 36.25 16.6C36.26 16.97 36.29 16.81 36.35 17.35C36.35 17.36 36.35 17.36 36.35 17.36C36.5 18.82 36.83 19.66 37.28 20.46C37.74 21.23 38.31 21.92 38.97 23.09C38.98 23.09 38.98 23.09 38.98 23.09C39.17 23.46 39.38 23.77 39.58 24.06C39.59 24.06 39.59 24.06 39.59 24.06C39.81 24.35 40.04 24.59 40.28 24.81C40.51 25.01 40.77 25.2 41.02 25.34C41.02 25.34 41.03 25.34 41.03 25.35C41.29 25.49 41.55 25.59 41.84 25.65C42.96 25.95 44.22 25.67 45.59 24.89C46.74 24.22 47.57 23.9 48.34 23.46C48.53 23.35 48.73 23.23 48.92 23.09C49.09 22.96 49.28 22.81 49.49 22.62C49.67 22.47 49.86 22.25 50.05 22.02C50.25 21.81 50.48 21.54 50.69 21.24C50.74 21.16 50.75 21.12 50.8 21.06C51.07 20.67 51.31 20.34 51.49 20.04C51.9 19.74 52.31 19.41 52.71 19.14C53.67 18.5 54.71 17.5 55.35 16.34C55.5 16.06 57.56 13.56 56 12C54 10 51 12 51 12C51 12 50.15 10.06 48 9C44 7 41 9 41 9z
           M21.03 36.97C21.03 37.2 21.03 37.44 21.03 37.67C20.87 37.55 20.71 37.46 20.53 37.34C20.53 37.48 20.53 37.59 20.53 37.74C20.36 37.63 20.15 37.51 19.98 37.42C20 37.51 20.06 37.63 20.1 37.74C19.94 37.65 19.75 37.55 19.59 37.48C19.61 37.69 19.63 37.91 19.65 38.12C19.5 37.95 19.32 37.77 19.14 37.59C19.22 37.91 19.27 38.2 19.34 38.5C19.16 38.42 19 38.32 18.84 38.24C18.99 38.63 19.12 39 19.27 39.4C19.07 39.12 18.86 38.84 18.64 38.55C18.79 38.96 18.95 39.33 19.09 39.72C18.97 39.64 18.84 39.54 18.71 39.47C18.87 39.8 19.03 40.15 19.22 40.5C19.07 40.36 18.92 40.24 18.77 40.09C18.95 40.33 19.11 40.56 19.27 40.8C19.12 40.73 18.99 40.64 18.84 40.54C18.84 40.54 21.11 44.92 24.89 47.42C25.85 48.03 26.9 48.75 28.08 49.47C29.25 50.17 30.57 50.88 32.01 51.46C33.83 52.19 35.88 52.74 38.19 52.93C38.65 52.97 39.13 52.99 39.6 52.99C40.57 53 41.58 52.95 42.65 52.8C43.71 52.67 44.63 52.4 45.43 52.02C46.23 51.66 46.91 51.2 47.49 50.67C48.34 49.88 48.99 48.95 49.46 48C51 45 50.73 42.08 50.73 42.08C48.38 47.5 46.24 49.24 42.67 48.25C42.33 48.17 42 48.03 41.63 47.91C41.09 47.7 40.53 47.47 39.94 47.16C33.19 43.78 23.45 37.93 23.45 37.93C23.42 38.06 23.4 38.22 23.38 38.38C23.07 38.08 22.75 37.81 22.44 37.53C22.44 37.62 22.44 37.71 22.44 37.79C22.28 37.65 22.13 37.5 22 37.34C21.98 37.48 21.96 37.59 21.94 37.74C21.78 37.51 21.63 37.3 21.5 37.08C21.5 37.25 21.5 37.44 21.5 37.59C21.35 37.4 21.19 37.18 21.03 36.97V36.97z"
        transform="matrix(1.3066,0,0,1.1185,-13.0676,-3.04)"
  />
  <path style="fill:none; stroke:#000000; stroke-width:3"
        d="M32 5.9C42 5.9 50.13 14 50.13 24C50.13 34 42 42.14 32 42.14C22 42.14 13.87 34 13.87 24C13.87 14 22 5.9 32 5.9z"
        transform="matrix(1.3646,0,0,1.358,-14.2008,2.3501)"
  />
  <linearGradient id="gradient0" gradientUnits="userSpaceOnUse" x1="41.42" y1="9.61" x2="51.86" y2="28.23">
   <stop offset="0" stop-color="#0f80bc"/>
   <stop offset="0.3372" stop-color="#0a5f9e"/>
   <stop offset="1" stop-color="#00145a"/>
  </linearGradient>
  <path style="fill:url(#gradient0)"
        d="M32 5.9C42 5.9 50.13 14 50.13 24C50.13 34 42 42.14 32 42.14C22 42.14 13.87 34 13.87 24C13.87 14 22 5.9 32 5.9z"
        transform="matrix(1.3646,0,0,1.358,-14.2008,2.3501)"
  />
  <radialGradient id="gradient1" gradientUnits="userSpaceOnUse" cx="0" cy="0" r="64" gradientTransform="matrix(0.4475,0,0,0.4475,32.6467,9.5437)">
   <stop offset="0" stop-color="#0f80bc"/>
   <stop offset="0.3764" stop-color="#0b629b"/>
   <stop offset="1" stop-color="#00022f"/>
  </radialGradient>
  <path style="fill:url(#gradient1)"
        d="M47.3 14.3C44.64 10.09 40.22 7.08 35.26 6.2C34.21 6 33.08 5.9 32 5.9C26.94 5.9 22 8.09 18.59 11.86C14.99 15.8 13.3 21.31 14.05 26.61C14.5 29.11 14.74 29.87 15.41 31.25C17.23 35.44 20.61 38.8 24.75 40.64C29.5 42.71 35.05 42.62 39.74 40.41C39.55 39.5 38.81 39.5 38.07 39.44H38L38.25 39.5C37.7 39.34 37.17 39.63 36.63 39.76C36 39.98 35.31 39.89 34.7 39.78C33.42 39.66 31.84 39.41 30.74 40.31C30.71 40.31 30.61 40.31 30.61 40.31H30.4C30.4 40.31 27.95 40.31 27.39 40.31C26.88 39.97 26.39 39.84 25.95 39.8C25.89 39.77 25.7 39.52 25.7 39.52C25.57 39.41 25.47 39.29 25.25 39.24L24.19 38.88L23.06 38.47C22.97 38.44 22.87 38.43 22.74 38.42C22.74 38.38 22.74 38.3 22.73 38.26L22.48 37.89C22.11 37.28 21.75 36.74 21.09 36.56C21.15 36.21 21.01 35.9 20.94 35.5C20.81 35.14 20.75 34.73 20.81 34.29L20.84 33.95C20.87 33.45 20.88 32.95 20.83 32.45C21.61 31.52 21.77 30.61 21.73 29.48L21.71 29.01C21.71 28.39 21.72 28.34 21.89 28.06L22 27.9C22.58 27.15 23.48 25.69 22.27 25.02L19.36 23.45C19.36 23.45 18.98 23.24 18.9 23.24V23.23C18.88 22.37 18.6 21.74 17.88 21.24L17.74 21.11L17.49 20.76L16.74 19.89C16.26 19.48 15.81 19.34 15.43 19.27C15.41 19.22 15.37 19.11 15.3 19.07C16.35 18.61 16.83 17.5 17.23 16.5C17.47 15.97 17.64 15.36 18.09 14.87C18.49 14.47 18.85 14.09 18.74 13.47C19.56 13.11 20.31 12.73 21 12.3L21.11 12.24L22.56 11.36C23.57 10.74 24 9.93 24.37 8.8C24.99 8.87 25.5 8.73 25.96 8.5C26.74 8.99 28 9 28.64 8.3C28.69 8.3 28.82 8.3 28.94 8.3C28.56 9.09 28.94 10.17 29.81 10.5C29.84 10.53 29.85 10.6 29.87 10.61C29.72 10.68 29.51 10.74 29.51 10.74L28.74 11.65C28.57 12.18 28.74 12.74 29 13.24C29 13.29 29 13.35 29 13.35C29.02 13.43 29.08 13.59 29.11 13.74C29.02 13.81 28.98 13.93 28.98 13.93C28.14 14.87 26.87 15.11 26.5 16.46L26.48 16.61C26.07 17.14 25.97 17.81 26.33 18.37C26.27 18.47 26.24 18.5 26.24 18.5C25.94 19.11 25.62 19.82 25.85 20.5C26 21.14 26.58 21.63 27.09 22.09C27.59 22.5 28.1 22.97 28.73 23.2C29.47 23.49 30.26 23.4 31 23.23L31.77 23C32.15 22.87 32.5 22.69 32.9 22.73C33.28 22.75 33.62 23.1 33.91 23.35C33.38 24.71 34.41 26.06 35 27.23C35 27.23 35.15 27.47 35.2 27.5C34.45 28.87 34.34 30.37 35.5 31.5L35.63 31.62C35.58 32.74 35.65 34.72 37.03 35.03C38.5 35.41 39.98 34.56 40.83 33.5L41.2 33.05L41.49 32.84C41.77 32.65 42.12 32.39 42.27 32.01C42.49 31.65 42.5 31.24 42.74 30.89V30.9C42.76 31.61 43.45 32.13 44.12 32C44.97 31.87 45.48 30.96 45.79 30.24L45.97 29.98L46 29.88C46.42 29.2 46.72 28.27 46.19 27.56C45.74 26.9 44.84 26.74 44.24 27.25C44.24 27.07 44.24 26.87 44.24 26.87L44.25 25.57C44.28 25.37 44.72 24.99 44.94 24.74L45.15 24.52L45.39 24.34C45.82 23.95 46.25 23.5 46.45 22.87C46.51 22.61 46.49 22.2 46.5 21.89V21.72V21.61C46.52 21 46.47 20.4 46 20C46.5 19.7 46.9 19.12 47.04 18.48C47.06 18.5 47.16 18.63 47.16 18.63C47.27 18.96 47.5 19.32 47.8 19.61C47.75 20.37 48.03 21.08 48.39 21.74C48.71 22.37 48.75 23.08 48.74 23.76L48.77 24.5C48.79 24.87 48.83 25.24 48.74 25.61C48.66 25.98 48.49 26.25 48.4 26.61C48.18 27.38 48.12 28.22 48.08 29C48 29.69 48.39 30.33 48.93 30.51C50.98 25.24 50.38 19.11 47.3 14.3z"
        transform="matrix(1.3646,0,0,1.3856,-14.2008,2.187)"
  />
  <radialGradient id="gradient2" gradientUnits="userSpaceOnUse" cx="0" cy="0" r="64" gradientTransform="matrix(0.8128,0,0,0.8128,32.2292,3.6071)">
   <stop offset="0" stop-color="#67c5d5"/>
   <stop offset="0.2431" stop-color="#66c2d3"/>
   <stop offset="0.4313" stop-color="#5392ba"/>
   <stop offset="0.6627" stop-color="#0534cd"/>
   <stop offset="0.796" stop-color="#1b006d"/>
   <stop offset="1" stop-color="#031c7a"/>
  </radialGradient>
  <path style="fill:url(#gradient2)"
        d="M19.57 32.16C19.87 31.75 20.24 31.46 20.48 31C20.73 30.47 20.58 29.61 20.58 29.01C20.58 28.36 20.58 27.97 21 27.37C21.33 26.96 21.62 26.58 21.74 26C20.75 25.5 19.81 24.97 18.83 24.45C18.57 24.32 18 24.12 17.87 23.87C17.71 23.48 17.87 22.98 17.69 22.6C17.51 22.32 17.09 22.11 16.87 21.86C16.57 21.5 16.34 21.07 15.99 20.74C15.65 20.4 15.3 20.26 14.87 20.5C14.43 20.75 14.43 20.06 14.41 19.74C14.28 20.24 14.18 20.76 14.1 21.31C14.5 21.31 14.43 21.4 14.48 21.82C14.49 22.22 14.5 22.61 14.5 23C14.55 23.21 14.53 23.27 14.37 23.27C14.3 23.32 14.24 23.34 14.18 23.35C14.11 23.44 14.03 23.4 13.99 23.32C13.8 23.31 15.11 28.34 15.37 28.74C15.74 29.24 16.51 31.37 16.62 32C16.75 32.76 17.2 33.04 17.76 33.52C17.9 34.38 18.13 34.89 18.71 35.5C18.97 35.77 19.22 36.04 19.45 36.38C19.65 36.69 19.77 36.67 20 36.32C19.73 35.7 19.61 34.97 19.64 34.24C19.71 33.54 19.86 32.78 19.57 32.16
           M26 7.11C26.36 7.34 26.37 7.57 26.83 7.64C27.11 7.71 27.61 7.77 27.85 7.52C28.44 6.93 29.33 7.36 30 6.93C30.52 6.58 31 5.93 31.71 5.93C32.13 5.93 32.4 6.18 32.74 6.39C33.21 6.64 33.57 6.14 34 6.01C30.65 5.64 27.24 6.21 24.22 7.64C24.87 7.87 25.5 7.52 26 7.11
           M30.61 9.8C30.95 9.81 31.32 10.05 31.61 9.93C32.13 9.72 31.61 8.97 31.44 8.74C31.26 8.59 30.57 7.87 30.7 8.5C30.76 8.93 31.13 9.5 30.61 9.8
           M17.61 13.79C17.65 13.55 17.51 13.48 17.37 13.3C16.33 14.78 15.49 16.37 14.87 18.08C16.26 17 16.19 14.87 17.61 13.79
           M50.07 22.94C49.81 20.14 49.01 17.4 47.68 15C46.99 13.74 46.14 12.59 45.16 11.55C44.68 11.05 44.17 10.55 43.63 10.11C43.47 9.99 43.26 9.74 43.02 9.87C42.81 9.98 42.67 9.55 42.73 9.42C40.34 7.67 37.54 6.52 34.66 6.08C35.05 6.37 35.58 6.36 36.03 6.54C36.23 6.58 36.69 6.87 36.29 6.99C35.54 7.23 34.73 6.93 33.98 6.99C33.5 7.02 33.25 7.18 33.24 7.64C33.22 7.93 33.15 8.43 33.24 8.68C33.33 8.98 34.24 8.61 34.41 8.43C34.63 8.18 34.33 7.58 34.99 7.77C35.21 8.24 35.7 9.61 34.66 9.24C34.4 9.16 33.91 8.74 33.62 8.87C33.57 8.87 33.52 9.18 33.5 9.24C33.44 9.41 33.26 9.5 33.07 9.55C32.34 9.74 31.84 9.87 31.56 10.67C31.44 11.05 31.45 11.3 31 11.43C30.69 11.55 30.34 11.61 30 11.78C29.6 11.99 29.87 12.53 30.02 12.8C30.14 13 30.11 13.49 30.36 13.6C30.99 13.97 31.71 12.55 31.98 12.23C32.29 11.79 32.7 11.87 33.17 11.73C33.4 11.66 33.68 11.11 33.92 11.18C34.69 11.5 34.93 12.43 35.02 13.15C35.26 13.16 35.13 12.55 35.65 12.68C35.24 12.28 35 11.68 34.94 11.11C35.5 11.5 35.89 11.87 36.03 12.5C36.23 13.11 36.5 13.49 37 12.86C37.16 12.73 37.32 11.87 37.58 12.11C37.81 12.3 37.82 13 37.5 13.09C37.7 13.28 37.98 13.18 38.21 13.11C38.5 13.05 38.7 13.05 39 13.18C39.33 13.3 39.73 13.37 40.06 13.37C40.47 13.42 40.67 13.74 40.82 14.03C41.29 14.8 38.5 14.49 38.34 14.48C38 14.43 37.66 14.43 37.32 14.55C37.07 14.68 36.92 15 36.63 14.87C36.29 14.79 36 14.5 35.74 14.3C35.34 14.05 34.97 13.85 34.52 13.66C33.84 13.36 33.05 13.16 32.31 13.3C31.99 13.37 31.61 13.54 31.36 13.74C31 14 30.61 13.79 30.25 14.15C29.74 14.68 29.37 15.36 28.65 15.68C28.37 15.81 28.02 15.93 27.85 16.21C27.61 16.47 27.61 16.82 27.5 17.1C27.37 17.37 27.07 17.5 27.31 17.85C27.5 18.12 27.58 18.37 27.44 18.72C27.22 19.22 26.62 19.88 27.06 20.46C27.47 21 28.14 21.5 28.71 21.89C29.32 22.36 30.06 22.32 30.74 22.11C31.37 21.97 32.01 21.62 32.71 21.6C33.52 21.51 34.2 22.08 34.76 22.61C35.17 22.96 35.3 23.09 35 23.59C34.69 24.11 34.9 24.51 35.16 25.09C35.44 25.61 35.72 26.13 36 26.69C36.13 26.89 36.27 27.11 36.41 27.37C36.5 27.61 36.31 27.81 36.2 28.01C35.94 28.5 35.74 29.08 35.74 29.61C35.74 30.24 36.01 30.47 36.44 30.86C36.77 31.22 36.75 31.87 36.74 32.31C36.7 32.99 36.89 33.44 37.25 33.95C37.83 33.98 38.46 33.94 38.99 33.68C39.63 33.38 39.92 32.74 40.4 32.26C40.82 31.84 41.3 31.76 41.47 31.11C41.62 30.27 42.02 29.98 42.64 29.48C43.18 29 43.08 28.36 43.13 27.72C43.15 26.98 43.03 26.13 43.16 25.4C43.24 24.74 43.9 24.22 44.31 23.74C44.67 23.4 45.22 23.09 45.32 22.61C45.42 22.34 45.33 22 45.33 21.72C45.33 21.5 45.43 21.15 45.31 21C45.06 20.48 44 20.99 43.9 20.5C43.79 20.21 43.8 20.24 44 20.08C44.24 19.87 44 19.65 43.81 19.57C43.28 19.24 42.9 19.07 42.5 18.56C42.15 18.09 41.83 17.56 41.54 17.01C41.5 16.89 40.77 15.5 41.21 15.61C41.66 15.78 42.04 16.32 42.34 16.62C42.91 17.24 43.39 17.87 43.73 18.6C43.74 18.69 44.03 18.87 44.13 18.89C44.38 19.09 44.64 19.24 44.96 19.21C45.67 19.12 46 18.5 46.02 17.87C46.13 17 45.46 17.19 44.94 16.74C44.64 16.5 44.45 16.2 44.21 15.92C44.03 15.74 43.66 15.47 43.77 15.18C44.07 14.99 44.22 15.16 44.5 15.31C44.83 15.54 45.22 15.72 45.57 15.85C46 15.98 46.57 15.86 46.94 16.11C47.14 16.24 47.27 16.61 47.44 16.86C47.66 17.21 47.88 17.56 48.03 17.94C48.33 18.5 48.44 18.88 49.13 19.11C48.69 19.84 49.12 20.69 49.47 21.36C49.84 22.12 49.92 22.9 49.91 23.77C49.9 24.6 50.05 25.5 49.72 26.25C49.29 27.09 49.24 28.21 49.24 29.11C49.24 29.06 49.25 28.99 49.27 28.94C49.24 29 49.15 29.47 49.24 29.49C49.43 29.5 49.74 27.81 49.75 27.61C50.06 26.08 50.19 24.5 50.07 22.94
           M40.16 12.15C39.9 12.18 39.92 11.74 39.72 11.61C39.38 11.47 38.98 11.67 38.67 11.81C37.68 12.37 37.97 11.24 38.17 10.68C38.2 10.6 38.81 10.72 38.95 10.68C39.25 10.66 39.74 10.5 40 10.8C40.24 11.05 40.46 11.36 40.74 11.61C41.06 11.93 40.43 12.11 40.16 12.15
           M45.02 28.02C44.73 28.46 44.26 28.74 44 29.21C43.74 29.74 43.89 30.35 43.89 30.9C44.45 30.63 44.7 29.89 44.99 29.39C45.19 29.01 45.65 28.31 45.02 28.02
           M37.8 40.5C36.38 41.53 34.16 40.64 32.5 40.8C32.15 40.84 31.77 40.94 31.5 41.19C31.11 41.5 30.96 41.47 30.4 41.47C29.32 41.47 28.21 41.47 27.1 41.47C29.5 42.14 32 42.29 34.5 41.98C35.67 41.79 36.82 41.51 37.97 41.16C38.02 41.13 38.9 40.69 38.57 40.54C38.33 40.49 38.02 40.63 37.8 40.5
           M20.87 37.67C20.74 37.74 20.61 37.93 20.45 37.97C20.88 38.33 21.37 38.72 21.87 39.03C21.5 38.63 21.37 38 20.87 37.67"
        transform="matrix(1.3646,0,0,1.358,-14.2008,2.3501)"
  />
  <radialGradient id="gradient3" gradientUnits="userSpaceOnUse" cx="0" cy="0" r="64" gradientTransform="matrix(0.0392,0.068,-0.3166,0.1828,31.6214,35.3425)">
   <stop offset="0" stop-color="#ffffff" stop-opacity="0.8823"/>
   <stop offset="1" stop-color="#ffffff" stop-opacity="0.4705"/>
  </radialGradient>
  <path style="fill:url(#gradient3)"
        d="M11.35 47.01C11.35 47.01 33.72 37.5 51.88 23.61C30.62 32.57 11.19 47.01 11.35 47.01V47.01z"
        transform="matrix(1,0,0,1,-2,1)"
  />
  <radialGradient id="gradient4" gradientUnits="userSpaceOnUse" cx="0" cy="0" r="64" gradientTransform="matrix(0.068,-0.0392,0.1828,0.3166,31.6213,35.3425)">
   <stop offset="0" stop-color="#ffffff"/>
   <stop offset="1" stop-color="#ffffff" stop-opacity="0"/>
  </radialGradient>
  <path style="fill:url(#gradient4)"
        d="M43.29 55.58C43.29 55.58 33.78 33.22 19.89 15.05C28.87 36.28 43.29 55.73 43.29 55.58V55.58z"
        transform="matrix(1,0,0,1,-2,1)"
  />
  <radialGradient id="gradient5" gradientUnits="userSpaceOnUse" cx="0" cy="0" r="64" gradientTransform="matrix(0,0.0748,-0.0748,0,31.6407,35.4235)">
   <stop offset="0" stop-color="#ffffff"/>
   <stop offset="0.349" stop-color="#ffffff" stop-opacity="0.8431"/>
   <stop offset="1" stop-color="#ffffff" stop-opacity="0"/>
  </radialGradient>
  <path style="fill:url(#gradient5)"
        d="M36.43 35.42C36.43 37.12 35.5 38.71 34 39.54C32.52 40.42 30.72 40.42 29.23 39.54C27.74 38.71 26.84 37.12 26.84 35.42C26.84 33.7 27.74 32.12 29.23 31.24C30.72 30.39 32.52 30.39 34 31.24C35.5 32.12 36.43 33.7 36.43 35.42V35.42z"
        transform="matrix(1,0,0,1,-2,1)"
  />
  <radialGradient id="gradient6" gradientUnits="userSpaceOnUse" cx="0" cy="0" r="64" gradientTransform="matrix(0.3773,0,0,0.3773,31.4071,34.7226)">
   <stop offset="0" stop-color="#ffffff" stop-opacity="0.698"/>
   <stop offset="0.8274" stop-color="#13059a" stop-opacity="0"/>
   <stop offset="1" stop-color="#4433e2" stop-opacity="0"/>
  </radialGradient>
  <path style="fill:url(#gradient6)"
        d="M31.38 10.55C40 10.55 48 15.17 52.29 22.62C56.62 30.11 56.62 39.3 52.29 46.77C48 54.24 40 58.84 31.38 58.84C22.75 58.84 14.8 54.24 10.49 46.77C6.17 39.3 6.17 30.11 10.49 22.62C14.8 15.17 22.75 10.55 31.38 10.55V10.55z"
  />
  <linearGradient id="gradient7" gradientUnits="userSpaceOnUse" x1="32.24" y1="74.97" x2="-2.06" y2="44.33">
   <stop offset="0" stop-color="#c1c1c1"/>
   <stop offset="1" stop-color="#ffffff"/>
  </linearGradient>
  <path style="fill:url(#gradient7)"
        d="M41 9C41 9 39.81 5.57 37 7C35 8 35.68 10.11 35.4 10.22C32.63 10.8 29.5 11.3 26.75 11.3C26.73 11.3 26.7 11.3 26.66 11.3C23.71 11.3 21.31 12.18 19.52 13.79C19.02 14.24 18.57 14.75 18.17 15.33C17.98 15.61 17.78 15.93 17.61 16.24C17.51 16.39 17.46 16.57 17.37 16.74C17.28 16.9 17.21 17.06 17.12 17.23C16.99 17.57 16.86 17.92 16.74 18.28C16.61 18.65 16.5 19.03 16.42 19.44C16.36 19.74 16.21 20.54 16.19 20.64C16.19 20.64 16.19 20.64 16.19 20.65C16.12 21.07 16.04 21.95 16.04 21.95C16.01 22.38 16 22.84 16 23.31C15.99 24.23 16.01 25.84 16.01 25.85C16.03 26.6 16.13 27.89 16.13 27.89C16.19 28.5 16.48 30.5 16.56 30.85C16.64 31.2 16.74 31.5 16.84 31.74C16.94 32 17.02 32.19 17.12 32.34V32.35C17.23 32.5 17.33 32.63 17.42 32.72C17.51 32.8 17.61 32.86 17.7 32.9C18.26 33.1 18.09 32.84 18 32.73C17.98 32.7 17.95 32.65 17.95 32.65C18.02 32.7 18.11 32.74 18.2 32.79C18.27 32.85 18.37 32.91 18.45 32.97C18.45 32.85 18.45 32.74 18.45 32.64C18.52 32.65 18.61 32.66 18.69 32.68C18.75 32.68 18.83 32.69 18.89 32.7C19.09 32.56 19.28 32.45 19.49 32.31C19.5 32.27 19.51 32.23 19.53 32.19C19.74 32.19 19.92 32.19 20.11 32.19C20.11 32.19 20.53 32.04 20.66 31.67C20.67 31.63 20.7 31.61 20.71 31.57C20.74 31.4 20.77 31.22 20.75 30.98C20.71 30.24 21 29.87 20.96 29.38C20.94 29.23 20.88 29.03 20.75 28.83C20.5 28.37 20.03 26.24 19.97 24.11C19.96 24.08 19.96 24.04 19.96 24C19.91 22.94 19.92 21.85 20 20.99C20.24 18.16 23.47 17.59 25.66 16.88C25.99 16.79 26.29 16.71 26.6 16.65C27.5 16.5 28.29 16.29 29.24 16.16C29.87 16.09 30.57 16.02 31.39 16.03C31.41 16.03 31.44 16.04 31.46 16.04C32.69 16.07 34.21 16.22 36.25 16.6C36.26 16.97 36.29 16.81 36.35 17.35C36.35 17.36 36.35 17.36 36.35 17.36C36.5 18.82 36.83 19.66 37.28 20.46C37.74 21.23 38.31 21.92 38.97 23.09C38.98 23.09 38.98 23.09 38.98 23.09C39.17 23.46 39.38 23.77 39.58 24.06C39.59 24.06 39.59 24.06 39.59 24.06C39.81 24.35 40.04 24.59 40.28 24.81C40.51 25.01 40.77 25.2 41.02 25.34C41.02 25.34 41.03 25.34 41.03 25.35C41.29 25.49 41.55 25.59 41.84 25.65C42.96 25.95 44.22 25.67 45.59 24.89C46.74 24.22 47.57 23.9 48.34 23.46C48.53 23.35 48.73 23.23 48.92 23.09C49.09 22.96 49.28 22.81 49.49 22.62C49.67 22.47 49.86 22.25 50.05 22.02C50.25 21.81 50.48 21.54 50.69 21.24C50.74 21.16 50.75 21.12 50.8 21.06C51.07 20.67 51.31 20.34 51.49 20.04C51.9 19.74 52.31 19.41 52.71 19.14C53.67 18.5 54.71 17.5 55.35 16.34C55.5 16.06 57.56 13.56 56 12C54 10 51 12 51 12C51 12 50.15 10.06 48 9C44 7 41 9 41 9z
           M21.03 36.97C21.03 37.2 21.03 37.44 21.03 37.67C20.87 37.55 20.71 37.46 20.53 37.34C20.53 37.48 20.53 37.59 20.53 37.74C20.36 37.63 20.15 37.51 19.98 37.42C20 37.51 20.06 37.63 20.1 37.74C19.94 37.65 19.75 37.55 19.59 37.48C19.61 37.69 19.63 37.91 19.65 38.12C19.5 37.95 19.32 37.77 19.14 37.59C19.22 37.91 19.27 38.2 19.34 38.5C19.16 38.42 19 38.32 18.84 38.24C18.99 38.63 19.12 39 19.27 39.4C19.07 39.12 18.86 38.84 18.64 38.55C18.79 38.96 18.95 39.33 19.09 39.72C18.97 39.64 18.84 39.54 18.71 39.47C18.87 39.8 19.03 40.15 19.22 40.5C19.07 40.36 18.92 40.24 18.77 40.09C18.95 40.33 19.11 40.56 19.27 40.8C19.12 40.73 18.99 40.64 18.84 40.54C18.84 40.54 21.11 44.92 24.89 47.42C25.85 48.03 26.9 48.75 28.08 49.47C29.25 50.17 30.57 50.88 32.01 51.46C33.83 52.19 35.88 52.74 38.19 52.93C38.65 52.97 39.13 52.99 39.6 52.99C40.57 53 41.58 52.95 42.65 52.8C43.71 52.67 44.63 52.4 45.43 52.02C46.23 51.66 46.91 51.2 47.49 50.67C48.34 49.88 48.99 48.95 49.46 48C51 45 50.73 42.08 50.73 42.08C48.38 47.5 46.24 49.24 42.67 48.25C42.33 48.17 42 48.03 41.63 47.91C41.09 47.7 40.53 47.47 39.94 47.16C33.19 43.78 23.45 37.93 23.45 37.93C23.42 38.06 23.4 38.22 23.38 38.38C23.07 38.08 22.75 37.81 22.44 37.53C22.44 37.62 22.44 37.71 22.44 37.79C22.28 37.65 22.13 37.5 22 37.34C21.98 37.48 21.96 37.59 21.94 37.74C21.78 37.51 21.63 37.3 21.5 37.08C21.5 37.25 21.5 37.44 21.5 37.59C21.35 37.4 21.19 37.18 21.03 36.97V36.97z"
        transform="matrix(1.3066,0,0,1.1185,-13.0676,-3.04)"
  />
  <path style="fill:none; stroke:#010000; stroke-opacity:0.7843; stroke-width:1"
        d="M21.03 36.97C21.03 37.2 21.03 37.44 21.03 37.67C20.87 37.55 20.71 37.46 20.53 37.34C20.53 37.48 20.53 37.59 20.53 37.74C20.36 37.63 20.15 37.51 19.98 37.42C20 37.51 20.06 37.63 20.1 37.74C19.94 37.65 19.75 37.55 19.59 37.48C19.61 37.69 19.63 37.91 19.65 38.12C19.5 37.95 19.32 37.77 19.14 37.59C19.22 37.91 19.27 38.2 19.34 38.5C19.16 38.42 19 38.32 18.84 38.24C18.99 38.63 19.12 39 19.27 39.4C19.07 39.12 18.86 38.84 18.64 38.55C18.79 38.96 18.95 39.33 19.09 39.72C18.97 39.64 18.84 39.54 18.71 39.47C18.87 39.8 19.03 40.15 19.22 40.5C19.07 40.36 18.92 40.24 18.77 40.09C18.95 40.33 19.11 40.56 19.27 40.8C19.12 40.73 18.99 40.64 18.84 40.54C18.84 40.54 21.11 44.92 24.89 47.42C25.85 48.03 26.9 48.75 28.08 49.47C29.25 50.17 30.57 50.88 32.01 51.46C33.83 52.19 35.88 52.74 38.19 52.93C38.65 52.97 39.13 52.99 39.6 52.99C40.57 53 41.58 52.95 42.65 52.8C43.71 52.67 44.63 52.4 45.43 52.02C46.23 51.66 46.91 51.2 47.49 50.67C48.34 49.88 48.99 48.95 49.46 48C51 45 50.73 42.08 50.73 42.08C48.38 47.5 46.24 49.24 42.67 48.25C42.33 48.17 42 48.03 41.63 47.91C41.09 47.7 40.53 47.47 39.94 47.16C33.19 43.78 23.45 37.93 23.45 37.93C23.42 38.06 23.4 38.22 23.38 38.38C23.07 38.08 22.75 37.81 22.44 37.53C22.44 37.62 22.44 37.71 22.44 37.79C22.28 37.65 22.13 37.5 22 37.34C21.98 37.48 21.96 37.59 21.94 37.74C21.78 37.51 21.63 37.3 21.5 37.08C21.5 37.25 21.5 37.44 21.5 37.59C21.35 37.4 21.19 37.18 21.03 36.97V36.97z
           M41 9C41 9 39.81 5.57 37 7C35 8 35.68 10.11 35.4 10.22C32.63 10.8 29.5 11.3 26.75 11.3C26.73 11.3 26.7 11.3 26.66 11.3C23.71 11.3 21.31 12.18 19.52 13.79C19.02 14.24 18.57 14.75 18.17 15.33C17.98 15.61 17.78 15.93 17.61 16.24C17.51 16.39 17.46 16.57 17.37 16.74C17.28 16.9 17.21 17.06 17.12 17.23C16.99 17.57 16.86 17.92 16.74 18.28C16.61 18.65 16.5 19.03 16.42 19.44C16.36 19.74 16.21 20.54 16.19 20.64C16.19 20.64 16.19 20.64 16.19 20.65C16.12 21.07 16.04 21.95 16.04 21.95C16.01 22.38 16 22.84 16 23.31C15.99 24.23 16.01 25.84 16.01 25.85C16.03 26.6 16.13 27.89 16.13 27.89C16.19 28.5 16.48 30.5 16.56 30.85C16.64 31.2 16.74 31.5 16.84 31.74C16.94 32 17.02 32.19 17.12 32.34V32.35C17.23 32.5 17.33 32.63 17.42 32.72C17.51 32.8 17.61 32.86 17.7 32.9C18.26 33.1 18.09 32.84 18 32.73C17.98 32.7 17.95 32.65 17.95 32.65C18.02 32.7 18.11 32.74 18.2 32.79C18.27 32.85 18.37 32.91 18.45 32.97C18.45 32.85 18.45 32.74 18.45 32.64C18.52 32.65 18.61 32.66 18.69 32.68C18.75 32.68 18.83 32.69 18.89 32.7C19.09 32.56 19.28 32.45 19.49 32.31C19.5 32.27 19.51 32.23 19.53 32.19C19.74 32.19 19.92 32.19 20.11 32.19C20.11 32.19 20.53 32.04 20.66 31.67C20.67 31.63 20.7 31.61 20.71 31.57C20.74 31.4 20.77 31.22 20.75 30.98C20.71 30.24 21 29.87 20.96 29.38C20.94 29.23 20.88 29.03 20.75 28.83C20.5 28.37 20.03 26.24 19.97 24.11C19.96 24.08 19.96 24.04 19.96 24C19.91 22.94 19.92 21.85 20 20.99C20.24 18.16 23.47 17.59 25.66 16.88C25.99 16.79 26.29 16.71 26.6 16.65C27.5 16.5 28.29 16.29 29.24 16.16C29.87 16.09 30.57 16.02 31.39 16.03C31.41 16.03 31.44 16.04 31.46 16.04C32.69 16.07 34.21 16.22 36.25 16.6C36.26 16.97 36.29 16.81 36.35 17.35C36.35 17.36 36.35 17.36 36.35 17.36C36.5 18.82 36.83 19.66 37.28 20.46C37.74 21.23 38.31 21.92 38.97 23.09C38.98 23.09 38.98 23.09 38.98 23.09C39.17 23.46 39.38 23.77 39.58 24.06C39.59 24.06 39.59 24.06 39.59 24.06C39.81 24.35 40.04 24.59 40.28 24.81C40.51 25.01 40.77 25.2 41.02 25.34C41.02 25.34 41.03 25.34 41.03 25.35C41.29 25.49 41.55 25.59 41.84 25.65C42.96 25.95 44.22 25.67 45.59 24.89C46.74 24.22 47.57 23.9 48.34 23.46C48.53 23.35 48.73 23.23 48.92 23.09C49.09 22.96 49.28 22.81 49.49 22.62C49.67 22.47 49.86 22.25 50.05 22.02C50.25 21.81 50.48 21.54 50.69 21.24C50.74 21.16 50.75 21.12 50.8 21.06C51.07 20.67 51.31 20.34 51.49 20.04C51.9 19.74 52.31 19.41 52.71 19.14C53.67 18.5 54.71 17.5 55.35 16.34C55.5 16.06 57.56 13.56 56 12C54 10 51 12 51 12C51 12 50.15 10.06 48 9C44 7 41 9 41 9z"
        transform="matrix(1.3066,0,0,1.1185,-13.0676,-3.04)"
  />
  <path style="fill:#000000"
        d="M42.9 20C42.07 20.04 41.89 20.16 42.02 20.9C42.17 21.63 42.55 22.66 43.47 22.94C44.36 23.19 45.18 22.5 45.64 21.96C46.09 21.39 46.22 21.37 45.29 20.7C44.39 20.01 43.72 19.96 42.9 20V20z"
        transform="matrix(1.3066,0,0,1.1185,-13.0676,-3.04)"
  />
  <path style="fill:#000000"
        d="M42.94 14.87C42.72 15.68 41.91 16.14 41.09 15.93C40.29 15.72 39.82 14.91 40.03 14.1C40.25 13.3 41.06 12.82 41.88 13.04C42.68 13.25 43.15 14.06 42.94 14.87V14.87z"
        transform="matrix(1.3066,0,0,1.1185,-13.0676,-3.04)"
  />
  <path style="fill:#000000"
        d="M47.03 16.1C46.82 16.9 47.29 17.72 48.09 17.94C48.91 18.14 49.72 17.67 49.94 16.87C50.15 16.07 49.68 15.25 48.88 15.04C48.06 14.82 47.25 15.3 47.03 16.1V16.1z"
        transform="matrix(1.3066,0,0,1.1185,-13.0676,-3.04)"
  />
 </g>
</svg>
