<?xml version="1.0" encoding="UTF-8" standalone="no"?>
<svg
   version="1.1"
   width="180"
   height="38"
   viewBox="0 0 180 38"
   id="svg12"
   sodipodi:docname="about-wordmark.svg"
   inkscape:version="1.3.2 (, )"
   xmlns:inkscape="http://www.inkscape.org/namespaces/inkscape"
   xmlns:sodipodi="http://sodipodi.sourceforge.net/DTD/sodipodi-0.dtd"
   xmlns:xlink="http://www.w3.org/1999/xlink"
   xmlns="http://www.w3.org/2000/svg"
   xmlns:svg="http://www.w3.org/2000/svg">
  <defs
     id="defs12">
    <linearGradient
       id="linearGradient24"
       inkscape:collect="always">
      <stop
         style="stop-color:#65aadb;stop-opacity:1;"
         offset="0.45438284"
         id="stop25" />
      <stop
         style="stop-color:#2716d0;stop-opacity:1;"
         offset="1"
         id="stop27" />
    </linearGradient>
    <linearGradient
       id="swatch23"
       inkscape:swatch="solid">
      <stop
         style="stop-color:#2716d0;stop-opacity:1;"
         offset="0"
         id="stop24" />
    </linearGradient>
    <radialGradient
       inkscape:collect="always"
       xlink:href="#linearGradient24"
       id="radialGradient26"
       cx="6.3394918"
       cy="6.3394918"
       fx="6.3394918"
       fy="6.3394918"
       r="5.7159352"
       gradientTransform="matrix(1,0,0,0.98181817,0,0.11526358)"
       gradientUnits="userSpaceOnUse" />
  </defs>
  <sodipodi:namedview
     id="namedview12"
     pagecolor="#ffffff"
     bordercolor="#999999"
     borderopacity="1"
     inkscape:showpageshadow="0"
     inkscape:pageopacity="0"
     inkscape:pagecheckerboard="0"
     inkscape:deskcolor="#d1d1d1"
     inkscape:zoom="2.4055556"
     inkscape:cx="-3.1177829"
     inkscape:cy="-66.096998"
     inkscape:window-width="2382"
     inkscape:window-height="1403"
     inkscape:window-x="0"
     inkscape:window-y="0"
     inkscape:window-maximized="0"
     inkscape:current-layer="svg12" />
  <g
     fill="none"
     stroke="#65aadb"
     stroke-opacity="1"
     stroke-width="1"
     stroke-linecap="square"
     stroke-linejoin="bevel"
     transform="matrix(0.59854735,0,0,0.63108781,3.2795047,2.0945077)"
     font-family="'Noto Sans'"
     font-size="12px"
     font-weight="400"
     font-style="normal"
     id="g12">
    <path
       d="m 83.246094,19.089844 h 7.101562 q 0.984375,0 1.652344,0.492187 0.703125,0.457031 0.878906,1.160156 l 4.429688,17.789063 q 0.386718,1.582031 0.703125,3.128906 0.351562,1.511719 0.597656,2.988281 0.386719,-1.476562 0.808594,-2.988281 0.457031,-1.546875 0.949221,-3.128906 l 5.27344,-17.859375 q 0.21093,-0.703125 0.84375,-1.160156 0.63281,-0.457032 1.54687,-0.457032 h 3.9375 q 0.94922,0 1.61719,0.457032 0.66797,0.457031 0.8789,1.160156 l 5.0625,17.859375 q 0.98438,3.234375 1.6875,6.152344 0.28125,-1.511719 0.59766,-3.023438 0.31641,-1.511719 0.77344,-3.164062 l 4.64062,-17.789063 q 0.17578,-0.703125 0.8086,-1.160156 0.66796,-0.457031 1.58203,-0.457031 h 6.78515 L 125.53906,54 h -7.20703 q -1.23047,0 -1.6875,-1.546875 l -5.76562,-19.40625 q -0.70313,-2.144531 -1.05469,-4.183594 -0.42188,2.109375 -1.05469,4.21875 l -5.87109,19.371094 Q 102.40625,54 100.96484,54 h -6.855465 z m 71.789066,-0.5625 q 3.30468,0 6.08203,1.089843 2.77734,1.054688 4.78125,3.09375 2.0039,2.003907 3.1289,4.957032 1.125,2.953125 1.125,6.75 0,1.019531 -0.10547,1.6875 -0.10546,0.632812 -0.35156,1.019531 -0.21094,0.386719 -0.63281,0.5625 -0.38672,0.140625 -0.98438,0.140625 h -20.88281 q 0.21094,2.53125 0.91406,4.394531 0.70313,1.863281 1.86329,3.058594 1.16015,1.195312 2.74218,1.792969 1.58203,0.5625 3.51563,0.5625 1.93359,0 3.33984,-0.457032 1.44141,-0.492187 2.4961,-1.019531 1.08984,-0.5625 1.93359,-1.019531 0.84375,-0.492188 1.65234,-0.492188 0.98438,0 1.61719,0.808594 l 2.56641,3.304688 q -1.44141,1.6875 -3.19922,2.8125 -1.75781,1.089843 -3.65625,1.757812 -1.86328,0.632813 -3.79688,0.914063 -1.93359,0.28125 -3.72656,0.28125 -3.62109,0 -6.75,-1.195313 -3.12891,-1.195312 -5.44922,-3.550781 -2.32031,-2.390625 -3.65625,-5.871094 -1.30078,-3.515625 -1.30078,-8.121094 0,-3.550781 1.16016,-6.679687 1.16015,-3.164063 3.30468,-5.484375 2.17969,-2.355469 5.27344,-3.726563 3.09375,-1.371093 6.9961,-1.371093 z m 0.17578,6.363281 q -3.41016,0 -5.34375,2.003906 -1.9336,1.96875 -2.4961,5.589844 h 14.76563 q 0,-1.511719 -0.42188,-2.882813 -0.38672,-1.371093 -1.26562,-2.425781 -0.84375,-1.054687 -2.14453,-1.652344 -1.30078,-0.632812 -3.09375,-0.632812 z M 200.07031,54 q -1.26562,0 -1.93359,-0.351563 -0.66797,-0.386718 -1.05469,-1.511718 l -0.77344,-2.320313 q -1.33593,1.160156 -2.5664,2.039063 -1.23047,0.878906 -2.56641,1.476562 -1.30078,0.597656 -2.8125,0.878906 -1.47656,0.316407 -3.30469,0.316407 -2.25,0 -4.11328,-0.597657 -1.86328,-0.632812 -3.23437,-1.828125 -1.33594,-1.195312 -2.07422,-2.953125 -0.73828,-1.792968 -0.73828,-4.113281 0,-1.933594 0.98437,-3.867187 0.98438,-1.933594 3.33985,-3.480469 2.39062,-1.582031 6.32812,-2.601563 3.97266,-1.054687 9.87891,-1.195312 v -1.863281 q 0,-3.375 -1.40625,-4.957032 -1.40625,-1.582031 -4.04297,-1.582031 -1.96875,0 -3.26953,0.457031 -1.26563,0.457032 -2.25,1.019532 -0.98438,0.527343 -1.82813,0.984375 -0.84375,0.457031 -1.89844,0.457031 -0.91406,0 -1.58203,-0.457031 -0.63281,-0.492188 -1.01953,-1.160157 l -1.61719,-2.8125 q 3.02344,-2.8125 6.67969,-4.183593 3.65625,-1.371094 7.91016,-1.371094 3.05859,0 5.48437,1.019531 2.42578,0.984375 4.11328,2.8125 1.6875,1.792969 2.56641,4.289063 0.87891,2.496093 0.87891,5.484375 V 54 Z m -12.23437,-5.554688 q 2.39062,0 4.11328,-0.84375 1.75781,-0.878906 3.48047,-2.671875 v -5.625 q -3.48047,0.140625 -5.80078,0.597657 -2.28516,0.421875 -3.65625,1.125 -1.3711,0.667968 -1.96875,1.582031 -0.5625,0.914062 -0.5625,1.96875 0,2.109375 1.16015,2.988281 1.19531,0.878906 3.23438,0.878906 z m 44.64843,-22.324218 q -0.35156,0.597656 -0.77343,0.84375 -0.38672,0.210937 -0.98438,0.210937 -0.63281,0 -1.33594,-0.316406 -0.66796,-0.351563 -1.51171,-0.738281 -0.8086,-0.421875 -1.86329,-0.738282 -1.05468,-0.351562 -2.42578,-0.351562 -2.10937,0 -3.26953,0.984375 -1.16015,0.949219 -1.16015,2.566406 0,1.089844 0.66796,1.828125 0.66797,0.703125 1.75782,1.265625 1.125,0.527344 2.49609,0.984375 1.40625,0.457031 2.88281,0.984375 1.47657,0.527344 2.84766,1.265625 1.40625,0.703125 2.49609,1.757813 1.125,1.054687 1.79297,2.566406 0.66797,1.511719 0.66797,3.621094 0,2.53125 -0.87891,4.675781 -0.8789,2.144531 -2.60156,3.691406 -1.6875,1.546875 -4.21875,2.425781 -2.49609,0.878907 -5.80078,0.878907 -1.6875,0 -3.33984,-0.316407 -1.65235,-0.316406 -3.16407,-0.878906 -1.51171,-0.597656 -2.84765,-1.371094 -1.30078,-0.773437 -2.25,-1.6875 l 2.07422,-3.375 q 0.38672,-0.597656 0.91406,-0.949218 0.52734,-0.351563 1.37109,-0.351563 0.77344,0 1.44141,0.421875 0.70312,0.421875 1.51172,0.949219 0.80859,0.492187 1.93359,0.914062 1.125,0.421875 2.8125,0.421875 1.26563,0 2.14453,-0.316406 0.91407,-0.316406 1.44141,-0.84375 0.5625,-0.5625 0.80859,-1.265625 0.28125,-0.703125 0.28125,-1.441406 0,-1.546875 -1.16015,-2.390625 -1.16016,-0.878906 -2.91797,-1.511719 -1.75781,-0.632812 -3.79688,-1.300781 -2.0039,-0.667969 -3.76172,-1.828125 -1.75781,-1.160156 -2.91796,-3.058594 -1.16016,-1.898437 -1.16016,-5.027344 0,-2.179687 0.80859,-4.113281 0.8086,-1.96875 2.39063,-3.445312 1.61719,-1.476563 3.97265,-2.355469 2.39063,-0.878906 5.55469,-0.878906 1.72266,0 3.33985,0.316406 1.61718,0.316406 3.02343,0.914062 1.44141,0.5625 2.60157,1.371094 1.19531,0.808594 2.10937,1.757813 z m 23.0625,-7.59375 q 3.30469,0 6.08204,1.089843 2.77734,1.054688 4.78125,3.09375 2.0039,2.003907 3.1289,4.957032 1.125,2.953125 1.125,6.75 0,1.019531 -0.10547,1.6875 -0.10547,0.632812 -0.35156,1.019531 -0.21094,0.386719 -0.63281,0.5625 -0.38672,0.140625 -0.98438,0.140625 h -20.88281 q 0.21094,2.53125 0.91406,4.394531 0.70313,1.863281 1.86328,3.058594 1.16016,1.195312 2.74219,1.792969 1.58203,0.5625 3.51563,0.5625 1.93359,0 3.33984,-0.457032 1.44141,-0.492187 2.49609,-1.019531 1.08985,-0.5625 1.9336,-1.019531 0.84375,-0.492188 1.65234,-0.492188 0.98438,0 1.61719,0.808594 l 2.56641,3.304688 q -1.44141,1.6875 -3.19922,2.8125 -1.75782,1.089843 -3.65625,1.757812 -1.86328,0.632813 -3.79688,0.914063 -1.93359,0.28125 -3.72656,0.28125 -3.62109,0 -6.75,-1.195313 -3.12891,-1.195312 -5.44922,-3.550781 -2.32031,-2.390625 -3.65625,-5.871094 -1.30078,-3.515625 -1.30078,-8.121094 0,-3.550781 1.16016,-6.679687 1.16015,-3.164063 3.30468,-5.484375 2.17969,-2.355469 5.27344,-3.726563 3.09375,-1.371093 6.99609,-1.371093 z m 0.17579,6.363281 q -3.41016,0 -5.34375,2.003906 -1.9336,1.96875 -2.4961,5.589844 h 14.76563 q 0,-1.511719 -0.42188,-2.882813 -0.38672,-1.371093 -1.26562,-2.425781 -0.84375,-1.054687 -2.14453,-1.652344 -1.30079,-0.632812 -3.09375,-0.632812 z M 286.16797,3.4804688 V 54 h -8.92969 V 3.4804688 Z"
       id="text11"
       style="font-weight:700;font-size:72px;font-family:Carlito;fill:#65aadb;stroke:none"
       aria-label="weasel" />
  </g>
  <path
     d="M 9.2701692,14.286075 V 35.895912 H 3.8096633 V 14.286075 Z M 28.295946,19.00847 c -0.157649,0.203113 -0.3153,0.369956 -0.472953,0.500529 -0.157654,0.116064 -0.379802,0.174096 -0.666443,0.174096 -0.272309,0 -0.523118,-0.0798 -0.752429,-0.239385 -0.229314,-0.159589 -0.494457,-0.333685 -0.79543,-0.522288 -0.286642,-0.203116 -0.63061,-0.384469 -1.031904,-0.544058 -0.386967,-0.15959 -0.881423,-0.239385 -1.483367,-0.239385 -0.745267,0 -1.397375,0.15959 -1.956322,0.478769 -0.544619,0.31918 -0.996079,0.776186 -1.354379,1.371019 -0.3583,0.594831 -0.630608,1.320236 -0.816925,2.176217 -0.171983,0.855977 -0.257975,1.813513 -0.257975,2.872606 0,2.248756 0.379799,3.982476 1.139396,5.201159 0.759597,1.204173 1.805835,1.806259 3.138712,1.806259 0.70227,0 1.26122,-0.101558 1.676851,-0.304673 0.415628,-0.203113 0.766763,-0.420733 1.053405,-0.65286 0.286639,-0.246638 0.544616,-0.471515 0.773929,-0.674631 0.243645,-0.203111 0.530285,-0.304667 0.859921,-0.304667 0.415628,0 0.738099,0.166843 0.967413,0.500528 l 1.590855,2.045644 c -0.573281,0.696388 -1.182393,1.276712 -1.827334,1.740972 -0.644942,0.449753 -1.311381,0.812457 -1.999317,1.088111 -0.673606,0.275653 -1.361544,0.464259 -2.063813,0.565817 -0.68794,0.116064 -1.368713,0.174096 -2.042318,0.174096 -1.203889,0 -2.343285,-0.246638 -3.418188,-0.739913 -1.060573,-0.507786 -1.999322,-1.240447 -2.816247,-2.197982 -0.802595,-0.957535 -1.44037,-2.125438 -1.913325,-3.503707 -0.472959,-1.392778 -0.709438,-2.974162 -0.709438,-4.744153 0,-1.581385 0.207815,-3.046704 0.623446,-4.395957 0.415628,-1.349257 1.024739,-2.51716 1.827334,-3.503711 0.816925,-1.001061 1.820167,-1.784498 3.009726,-2.350313 1.203892,-0.565817 2.594099,-0.848726 4.170621,-0.848726 1.490534,0 2.801917,0.268401 3.934148,0.805202 1.132231,0.522291 2.149804,1.283966 3.052721,2.285025 z m 13.651267,-5.070587 c 1.347212,0 2.586933,0.224875 3.719164,0.674626 1.132231,0.435243 2.106809,1.0736 2.923734,1.915071 0.816925,0.826962 1.4547,1.849784 1.913325,3.068466 0.458625,1.218683 0.687938,2.611462 0.687938,4.178337 0,0.420734 -0.0215,0.76893 -0.06449,1.044587 -0.043,0.261144 -0.114661,0.471511 -0.214984,0.631101 -0.08599,0.15959 -0.21498,0.275654 -0.386963,0.348192 -0.157653,0.05804 -0.358301,0.08706 -0.601946,0.08706 H 37.153145 c 0.08599,1.044583 0.272311,1.95134 0.55895,2.720269 0.286642,0.76893 0.666441,1.400033 1.139396,1.893308 0.472959,0.493275 1.031909,0.863232 1.676851,1.10987 0.644942,0.232131 1.361543,0.348197 2.149804,0.348197 0.788261,0 1.469032,-0.0943 2.042313,-0.282909 0.587614,-0.203115 1.096402,-0.413483 1.526364,-0.631105 0.444295,-0.232129 0.838425,-0.442496 1.182391,-0.631102 0.34397,-0.203111 0.680773,-0.304667 1.01041,-0.304667 0.401297,0 0.730934,0.166843 0.988912,0.500529 l 1.569355,2.045644 c -0.587611,0.696387 -1.239718,1.276711 -1.956322,1.740971 -0.7166,0.449753 -1.461865,0.812457 -2.235796,1.088111 -0.759597,0.261144 -1.533528,0.44975 -2.321793,0.565817 -0.788261,0.116064 -1.547859,0.174096 -2.278792,0.174096 -1.476201,0 -2.852076,-0.246638 -4.127627,-0.739913 -1.27555,-0.493276 -2.386282,-1.225937 -3.332196,-2.197982 -0.945914,-0.986551 -1.69118,-2.197978 -2.235797,-3.634283 -0.530286,-1.450811 -0.795429,-3.126497 -0.795429,-5.027058 0,-1.46532 0.236478,-2.843591 0.709433,-4.134813 0.472959,-1.30573 1.146565,-2.437363 2.020818,-3.394898 0.888586,-0.972045 1.963489,-1.740974 3.224709,-2.306789 1.26122,-0.565817 2.687258,-0.848726 4.278114,-0.848726 z m 0.107487,3.938953 c -1.390205,0 -2.479439,0.41348 -3.2677,1.240441 -0.788265,0.812456 -1.297052,1.965852 -1.526363,3.460188 h 9.029182 c 0,-0.623849 -0.08599,-1.218683 -0.257975,-1.784501 -0.157653,-0.565813 -0.415629,-1.066342 -0.77393,-1.501585 C 44.913945,18.856135 44.476817,18.515194 43.94653,18.268557 43.416247,18.00741 42.785637,17.876836 42.0547,17.876836 Z"
     id="text10"
     style="font-style:normal;font-weight:700;font-size:72px;font-family:Carlito;display:inline;fill:#2716d0;stroke:none;stroke-width:0.615245;stroke-linecap:square;stroke-linejoin:bevel;stroke-opacity:1"
     aria-label="ice"
     sodipodi:nodetypes="cccccccssccscscscssccscccccscccssccscccsccsscccscsscscccsccccsssccsccssssccccccs" />
  <ellipse
     style="fill:url(#radialGradient26);fill-opacity:1"
     id="path12"
     cx="6.3394918"
     cy="6.3394918"
     rx="5.7159352"
     ry="5.612009" />
</svg>
