<svg version="1.1" xmlns="http://www.w3.org/2000/svg" width="180" height="38" viewBox="0 0 180 38">
<g id="#2716d0fd">
<path fill="#2716d0" opacity="1.00" d=" M 0.00 6.10 C 1.08 4.91 2.22 3.78 3.41 2.70 C 3.34 5.99 3.00 9.27 2.18 12.46 C 1.42 11.53 0.69 10.58 0.00 9.61 L 0.00 6.10 Z" />
<path fill="#2716d0" opacity="1.00" d=" M 8.01 2.83 C 11.44 5.45 11.23 10.18 8.25 13.03 C 7.86 9.64 7.74 6.23 8.01 2.83 Z" />
<path fill="#2716d0" opacity="1.00" d=" M 3.57 15.13 C 4.54 15.14 6.47 15.14 7.44 15.14 C 7.43 22.14 7.45 29.14 7.43 36.14 C 6.47 36.14 4.54 36.14 3.57 36.14 C 3.56 29.13 3.57 22.13 3.57 15.13 Z" />
<path fill="#2716d0" opacity="1.00" d=" M 18.03 16.13 C 21.52 13.97 25.79 14.70 29.63 15.16 C 29.59 16.22 29.55 17.29 29.51 18.35 C 26.63 18.14 23.28 16.81 20.70 18.72 C 16.76 22.05 16.74 28.98 20.62 32.36 C 23.27 34.47 26.79 33.12 29.75 32.67 C 29.76 33.67 29.76 34.66 29.77 35.66 C 26.37 36.26 22.62 37.35 19.33 35.70 C 12.08 32.27 11.25 20.45 18.03 16.13 Z" />
<path fill="#2716d0" opacity="1.00" d=" M 37.61 16.61 C 40.76 13.94 46.16 13.77 48.92 17.09 C 51.00 19.67 50.95 23.17 51.45 26.29 C 46.82 26.35 42.18 26.29 37.54 26.40 C 38.35 33.43 45.57 34.91 51.30 32.81 C 51.16 33.54 50.89 34.99 50.75 35.72 C 46.86 36.46 42.49 37.38 38.91 35.11 C 32.53 31.43 32.24 21.30 37.61 16.61 M 37.53 23.28 C 40.98 23.40 44.44 23.39 47.89 23.28 C 47.01 20.96 46.30 17.28 43.03 17.58 C 39.66 17.09 38.72 20.98 37.53 23.28 Z" />
</g>
<g id="#739fcffe">
<path fill="#739fcf" opacity="1.00" d=" M 3.41 2.70 C 4.95 2.70 6.48 2.73 8.01 2.83 C 7.74 6.23 7.86 9.64 8.25 13.03 C 6.21 13.20 4.17 12.93 2.18 12.46 C 3.00 9.27 3.34 5.99 3.41 2.70 Z" />
<path fill="#739fcf" opacity="1.00" d=" M 175.58 5.54 C 176.55 5.54 178.49 5.54 179.46 5.54 C 179.44 15.75 179.46 25.95 179.44 36.15 C 178.48 36.15 176.56 36.15 175.60 36.15 C 175.58 25.95 175.61 15.75 175.58 5.54 Z" />
<path fill="#739fcf" opacity="1.00" d=" M 54.26 15.17 C 55.51 15.17 56.76 15.18 58.01 15.18 C 59.43 20.36 60.87 25.55 62.65 30.63 C 64.51 25.56 66.00 20.37 67.60 15.21 C 68.88 15.18 70.16 15.16 71.45 15.14 C 72.90 20.36 74.16 25.65 75.95 30.78 C 77.87 25.68 79.49 20.47 81.08 15.26 C 81.95 15.23 83.70 15.16 84.57 15.13 C 82.26 21.71 80.28 28.41 77.95 34.98 C 77.48 36.66 75.24 36.05 73.96 36.24 C 71.92 31.09 71.09 25.56 69.28 20.33 C 67.39 25.58 65.76 30.92 64.12 36.25 C 62.83 36.16 61.55 36.07 60.26 35.98 C 58.16 29.07 56.26 22.11 54.26 15.17 Z" />
<path fill="#739fcf" opacity="1.00" d=" M 93.28 35.75 C 83.82 32.31 85.36 14.94 95.99 14.62 C 102.43 14.00 104.54 21.18 104.51 26.29 C 99.87 26.35 95.23 26.29 90.59 26.40 C 91.43 33.75 98.98 34.73 104.84 32.86 C 103.42 37.60 97.02 37.02 93.28 35.75 M 90.76 23.30 C 94.15 23.40 97.55 23.41 100.94 23.28 C 100.83 15.94 91.07 16.10 90.76 23.30 Z" />
<path fill="#739fcf" opacity="1.00" d=" M 110.15 18.78 C 112.06 13.54 120.53 13.23 123.98 17.00 C 126.16 21.76 124.88 27.23 125.31 32.30 C 126.41 33.57 127.57 34.78 128.67 36.05 C 125.99 37.19 123.38 36.22 121.42 34.27 C 118.58 35.62 115.25 37.70 112.12 35.92 C 108.97 34.54 108.65 30.55 109.74 27.71 C 112.33 23.82 117.57 24.39 121.51 23.17 C 122.52 15.76 114.61 17.73 110.15 18.78 M 113.28 31.66 C 115.07 35.23 119.10 32.69 121.61 31.44 C 121.04 29.60 121.87 26.82 120.10 25.63 C 116.94 25.77 111.72 27.48 113.28 31.66 Z" />
<path fill="#739fcf" opacity="1.00" d=" M 132.34 20.12 C 132.88 14.11 140.31 14.12 144.78 15.12 C 144.74 16.19 144.70 17.26 144.66 18.33 C 141.73 17.65 134.82 16.27 136.40 21.46 C 140.23 24.32 147.94 25.61 146.31 32.06 C 143.98 37.51 137.11 37.09 132.38 35.58 C 132.32 34.47 132.26 33.36 132.21 32.25 C 135.57 33.38 142.51 35.54 142.63 29.92 C 139.75 26.12 132.04 26.10 132.34 20.12 Z" />
<path fill="#739fcf" opacity="1.00" d=" M 156.73 35.18 C 148.43 30.62 150.73 14.56 161.01 14.62 C 167.20 14.34 169.45 21.22 168.91 26.30 C 164.32 26.34 159.72 26.25 155.13 26.48 C 156.13 33.39 163.11 34.85 168.83 32.93 C 168.77 33.61 168.67 34.98 168.62 35.66 C 164.72 36.46 160.37 37.38 156.73 35.18 M 155.32 23.29 C 158.73 23.40 162.13 23.41 165.54 23.31 C 164.78 21.05 164.20 17.37 161.03 17.57 C 157.50 16.96 156.32 20.75 155.32 23.29 Z" />
</g>
</svg>
