<svg version="1.1" xmlns="http://www.w3.org/2000/svg" width="172" height="42" viewBox="0 0 172 42">
<g id="#729ecefd">
<path fill="#729ece" opacity="1.00" d=" M 2.59 3.52 C 3.89 3.08 5.21 2.69 6.55 2.34 C 7.39 6.09 7.61 9.94 8.31 13.72 C 6.05 14.94 3.46 14.91 1.54 13.07 C 3.99 10.33 3.59 6.80 2.59 3.52 Z" />
<path fill="#729ece" opacity="1.00" d=" M 167.87 6.12 C 169.10 6.25 170.33 6.39 171.57 6.53 C 171.29 17.65 171.65 28.78 171.37 39.90 C 170.48 39.87 168.69 39.82 167.80 39.79 C 167.72 28.57 167.58 17.34 167.87 6.12 Z" />
<path fill="#729ece" opacity="1.00" d=" M 89.60 16.54 C 96.94 14.24 100.75 22.84 99.48 28.86 C 95.31 28.71 91.14 28.71 86.97 28.84 C 86.34 36.09 93.85 39.10 99.68 36.21 C 99.59 37.24 99.49 38.27 99.38 39.29 C 96.67 40.08 93.84 41.10 91.00 40.38 C 80.93 37.47 80.34 20.59 89.60 16.54 M 86.98 25.63 C 89.97 25.68 92.97 25.67 95.97 25.63 C 95.75 23.18 95.35 19.32 92.04 19.47 C 88.46 18.83 87.48 22.97 86.98 25.63 Z" />
<path fill="#729ece" opacity="1.00" d=" M 106.04 17.92 C 110.17 15.84 117.64 14.74 119.24 20.48 C 119.94 25.58 119.29 30.76 119.65 35.89 C 123.16 37.66 122.91 41.25 118.63 40.74 C 117.80 39.64 116.98 38.53 116.15 37.43 C 113.92 38.91 111.55 41.30 108.62 40.47 C 103.13 38.94 102.71 30.13 107.76 27.80 C 110.22 26.39 113.12 26.37 115.86 26.05 C 117.53 19.39 110.86 18.13 106.19 20.91 C 106.15 20.16 106.07 18.67 106.04 17.92 M 107.96 33.93 C 108.40 38.18 113.61 36.99 115.81 34.89 C 115.73 32.66 115.65 30.43 115.48 28.20 C 112.28 28.58 107.55 29.75 107.96 33.93 Z" />
<path fill="#729ece" opacity="1.00" d=" M 129.93 16.84 C 132.65 15.86 135.63 16.58 138.44 16.69 C 138.43 17.48 138.40 19.07 138.39 19.86 C 135.84 19.68 133.29 19.57 130.74 19.54 C 127.38 26.99 140.54 25.94 139.77 33.03 C 140.52 40.00 131.66 42.36 126.59 39.30 C 126.45 38.20 126.32 37.10 126.20 36.00 C 129.98 36.96 134.84 38.73 136.83 34.01 C 135.11 30.63 131.35 29.61 128.53 27.47 C 125.22 24.67 125.88 18.62 129.93 16.84 Z" />
<path fill="#729ece" opacity="1.00" d=" M 146.62 35.38 C 143.43 29.11 144.62 17.41 153.04 16.36 C 159.79 15.41 161.91 23.41 161.60 28.68 C 157.18 29.01 152.60 28.06 148.34 29.60 C 149.02 36.45 155.86 38.83 161.59 36.21 C 161.49 37.22 161.38 38.24 161.27 39.25 C 156.16 41.76 149.40 40.73 146.62 35.38 M 148.89 25.62 C 151.90 25.67 154.92 25.68 157.94 25.62 C 157.58 23.26 157.16 19.50 154.05 19.48 C 150.39 18.70 149.13 22.81 148.89 25.62 Z" />
<path fill="#729ece" opacity="1.00" d=" M 51.99 16.80 C 52.80 16.73 54.44 16.59 55.25 16.52 C 56.87 22.10 57.98 27.82 59.64 33.40 C 62.29 28.14 62.76 22.10 64.77 16.59 C 65.62 16.60 67.33 16.62 68.19 16.63 C 70.04 22.09 70.11 28.22 72.91 33.30 C 74.57 27.72 75.93 22.05 77.76 16.52 C 78.52 16.58 80.02 16.71 80.78 16.77 C 78.59 24.38 76.36 31.98 74.33 39.63 C 73.03 39.72 71.73 39.79 70.43 39.86 C 69.01 34.46 67.92 28.98 66.57 23.56 C 63.46 28.33 63.23 34.39 61.43 39.73 C 60.12 39.75 58.82 39.76 57.52 39.77 C 55.74 32.10 53.56 24.52 51.99 16.80 Z" />
</g>
<g id="#2717cbf7">
<path fill="#2717cb" opacity="0.97" d=" M 6.55 2.34 C 10.21 5.00 11.74 10.18 8.31 13.72 C 7.61 9.94 7.39 6.09 6.55 2.34 Z" />
<path fill="#2717cb" opacity="0.97" d=" M 0.00 6.49 C 0.82 5.46 1.68 4.47 2.59 3.52 C 3.59 6.80 3.99 10.33 1.54 13.07 C 1.00 12.28 0.49 11.48 0.00 10.66 L 0.00 6.49 Z" />
<path fill="#2717cb" opacity="0.97" d=" M 15.96 18.95 C 19.10 15.40 24.18 16.33 28.35 16.76 C 28.35 17.53 28.35 19.08 28.35 19.85 C 25.93 19.76 23.48 19.42 21.07 19.82 C 16.28 22.80 16.26 29.89 18.61 34.41 C 20.63 38.16 25.39 36.42 28.77 36.29 C 28.65 37.30 28.52 38.32 28.40 39.33 C 25.44 40.18 22.07 41.47 19.13 39.87 C 11.87 35.95 10.70 24.94 15.96 18.95 Z" />
<path fill="#2717cb" opacity="0.97" d=" M 34.75 19.77 C 37.17 15.62 44.26 14.78 46.89 19.10 C 48.91 21.91 48.78 25.50 48.90 28.79 C 44.60 28.71 40.28 28.62 36.02 29.33 C 36.20 36.30 43.22 38.95 48.97 36.17 C 48.83 37.26 48.69 38.35 48.53 39.44 C 45.28 40.32 41.55 41.47 38.41 39.59 C 31.45 35.97 30.80 25.84 34.75 19.77 M 36.16 25.58 C 39.35 25.74 42.55 25.70 45.73 25.38 C 44.87 23.06 44.33 19.11 40.99 19.47 C 37.65 19.28 36.79 23.05 36.16 25.58 Z" />
<path fill="#2717cb" opacity="0.97" d=" M 3.43 39.81 C 3.55 32.05 3.20 24.28 3.62 16.53 C 4.52 16.60 6.31 16.75 7.21 16.82 C 7.20 24.49 7.42 32.16 7.08 39.82 C 5.86 39.83 4.64 39.82 3.43 39.81 Z" />
</g>
</svg>
